<?xml version="1.0" encoding="UTF-8"?>
<svg xmlns="http://www.w3.org/2000/svg" width="138" height="70" viewBox="0 0 138 70" fill="none">
  <path d="M136.053 47.3345L122.703 34.0657L136.06 20.7088L137.245 19.5241L136.06 18.3394L127.117 9.39644L125.932 8.21172L124.748 9.39644L111.391 22.7533L98.1218 9.40321L96.9371 8.21172L95.7456 9.39644L86.8026 18.3394L85.6247 19.5241L86.7959 20.7088L100.078 34.0657L86.8026 47.3413L85.6179 48.526L86.8026 49.7107L95.7456 58.6537L96.9303 59.8384L98.115 58.6537L111.391 45.3781L124.754 58.6605L125.932 59.8384L127.117 58.6537L136.06 49.7107L137.245 48.5193L136.053 47.3345Z" fill="white"></path>
  <path d="M61.9236 7.4265V70H78.5232V0L61.9236 7.4265Z" fill="white"></path>
  <path d="M35.2099 45.1005C34.9255 50.4351 30.5116 54.6798 25.1025 54.6798C19.6934 54.6798 14.9816 50.1508 14.9816 44.5589C14.9816 38.967 19.5106 34.438 25.1025 34.438C30.6944 34.438 34.9255 38.6827 35.2099 44.0173V45.1005ZM35.2099 19.3887V21.5821C32.1161 20.2214 28.6973 19.4564 25.1025 19.4564C11.2379 19.4632 0 30.6943 0 44.5589C0 58.4235 11.2379 69.6614 25.1025 69.6614C28.6973 69.6614 32.1161 68.8964 35.2099 67.5357V69.9999H51.8095V19.3955H35.2099V19.3887Z" fill="white"></path>
</svg>
